<svg width="617" height="177" viewBox="0 0 617 177" fill="none" xmlns="http://www.w3.org/2000/svg">
<rect width="88.1429" height="88.1429" fill="#1FC1EA"/>
<rect x="176.286" width="88.1429" height="88.1429" fill="#FFED85"/>
<rect x="352.571" width="88.1429" height="88.1429" fill="#00CCCC"/>
<rect x="528.857" width="88.1429" height="88.1429" fill="#C393F1"/>
<rect x="88.1429" y="88.1429" width="88.1429" height="88.1429" fill="#FFA500"/>
<rect x="264.429" y="88.1429" width="88.1429" height="88.1429" fill="#FF99AB"/>
<rect x="440.714" y="88.1429" width="88.1429" height="88.1429" fill="#32CD32"/>
<path d="M194.116 123V53.1818H216.651C221.605 53.1818 225.741 54.1364 229.06 56.0455C232.401 57.9318 234.912 60.5 236.594 63.75C238.298 67 239.151 70.6591 239.151 74.7273C239.151 78.7955 238.31 82.4659 236.628 85.7386C234.946 88.9886 232.446 91.5682 229.128 93.4773C225.81 95.3636 221.685 96.3068 216.753 96.3068H199.026V90.5795H216.582C220.241 90.5795 223.276 89.8977 225.685 88.5341C228.094 87.1477 229.889 85.2614 231.071 82.875C232.276 80.4886 232.878 77.7727 232.878 74.7273C232.878 71.6818 232.276 68.9659 231.071 66.5795C229.889 64.1932 228.082 62.3182 225.651 60.9545C223.241 59.5909 220.185 58.9091 216.48 58.9091H200.491V123H194.116ZM258.923 53.1818V123H252.855V53.1818H258.923ZM281.048 90.2727V123H274.98V70.6364H280.878V78.8523H281.423C282.651 76.1705 284.56 74.0227 287.151 72.4091C289.764 70.7727 292.991 69.9545 296.832 69.9545C300.355 69.9545 303.446 70.6932 306.105 72.1705C308.787 73.625 310.866 75.7727 312.344 78.6136C313.844 81.4545 314.594 84.9432 314.594 89.0795V123H308.526V89.4545C308.526 85.1591 307.321 81.7614 304.912 79.2614C302.526 76.7614 299.321 75.5114 295.298 75.5114C292.548 75.5114 290.105 76.1023 287.969 77.2841C285.832 78.4659 284.139 80.1705 282.889 82.3977C281.662 84.6023 281.048 87.2273 281.048 90.2727ZM336.642 90.2727V123H330.574V70.6364H336.472V78.8523H337.017C338.244 76.1705 340.153 74.0227 342.744 72.4091C345.358 70.7727 348.585 69.9545 352.426 69.9545C355.949 69.9545 359.04 70.6932 361.699 72.1705C364.381 73.625 366.46 75.7727 367.938 78.6136C369.438 81.4545 370.188 84.9432 370.188 89.0795V123H364.119V89.4545C364.119 85.1591 362.915 81.7614 360.506 79.2614C358.119 76.7614 354.915 75.5114 350.892 75.5114C348.142 75.5114 345.699 76.1023 343.562 77.2841C341.426 78.4659 339.733 80.1705 338.483 82.3977C337.256 84.6023 336.642 87.2273 336.642 90.2727ZM386.168 123V70.6364H392.065V78.6818H392.509C393.554 76.0455 395.372 73.9205 397.963 72.3068C400.577 70.6705 403.531 69.8523 406.827 69.8523C407.327 69.8523 407.884 69.8636 408.497 69.8864C409.111 69.9091 409.622 69.9318 410.031 69.9545V76.125C409.759 76.0795 409.281 76.0114 408.599 75.9205C407.918 75.8295 407.179 75.7841 406.384 75.7841C403.656 75.7841 401.224 76.3636 399.088 77.5227C396.974 78.6591 395.304 80.2386 394.077 82.2614C392.849 84.2841 392.236 86.5909 392.236 89.1818V123H386.168ZM419.227 123.511C417.886 123.511 416.727 123.034 415.75 122.08C414.795 121.102 414.318 119.943 414.318 118.602C414.318 117.239 414.795 116.08 415.75 115.125C416.727 114.17 417.886 113.693 419.227 113.693C420.591 113.693 421.75 114.17 422.705 115.125C423.659 116.08 424.136 117.239 424.136 118.602C424.136 119.489 423.909 120.307 423.455 121.057C423.023 121.807 422.432 122.409 421.682 122.864C420.955 123.295 420.136 123.511 419.227 123.511Z" fill="black"/>
</svg>
